<?xml version="1.0" encoding="iso-8859-1"?>
<!-- Uploaded to: SVG Repo, www.svgrepo.com, Generator: SVG Repo Mixer Tools -->
<!DOCTYPE svg PUBLIC "-//W3C//DTD SVG 1.1//EN" "http://www.w3.org/Graphics/SVG/1.1/DTD/svg11.dtd">
<svg fill="#000000" height="800px" width="800px" version="1.1" id="Capa_1" xmlns="http://www.w3.org/2000/svg" xmlns:xlink="http://www.w3.org/1999/xlink" 
	 viewBox="0 0 220.872 220.872" xml:space="preserve">
<path d="M141.457,190.186c-0.134,0-0.27-0.014-0.406-0.042c-1.082-0.223-1.777-1.281-1.555-2.362
	c0.01-0.048,0.975-4.773,1.296-10.54c0.306-5.498-3.822-15.93-16.197-20.513c-1.7-0.63-3.815-0.782-6.21-0.636
	c-0.314,0.143-0.643,0.274-0.985,0.396c-0.564,0.199-1.158,0.13-1.644-0.141c-3.109,0.401-6.555,1.144-10.094,1.905
	c-14.229,3.062-31.94,6.876-44.832-6.867c-13.741-14.649-6.169-32.496-0.64-45.528c1.849-4.358,3.446-8.122,3.963-11.023
	c1.739-9.767-3.867-16.651-5.197-18.122c-8.349-3.113-14.471-10.837-15.25-20.06H2c-1.104,0-2-0.896-2-2s0.896-2,2-2h41.674
	c0.808-12.249,11.03-21.968,23.48-21.968h119.468c1.104,0,2,0.896,2,2v3.5h11.75c1.104,0,2,0.896,2,2v6.75h8.5
	c0.311,0,0.617,0.072,0.895,0.211c0.372,0.187,9.105,4.689,9.105,16.539c0,11.375-9.352,22.12-9.749,22.572
	c-0.69,0.782-1.866,0.902-2.7,0.278c-0.085-0.063-8.559-6.351-14.801-6.351h-23.606c-1.431,0.614-7.477,3.479-6.68,7.622
	c0.484,2.521,4.251,7.614,8.612,13.513c5.683,7.687,12.755,17.253,17.731,27.759c2.352,4.966,4.518,9.01,6.43,12.578
	c5.396,10.076,8.654,16.158,6.462,25.725c-1.577,6.885-8.203,13.798-16.881,17.613c-7.929,3.486-15.877,3.551-21.807,0.179
	c-11.903-6.768-31.028-46.587-35.264-55.643l-3.254,1.377c0.282,1.938,0.631,5.458,0.378,10.014
	c-0.257,4.621-0.536,9.65-2.87,13.296c1.094,0.15,2.131,0.396,3.109,0.759c14.393,5.331,19.171,17.849,18.803,24.486
	c-0.339,6.079-1.33,10.925-1.372,11.128C143.218,189.537,142.386,190.186,141.457,190.186z M129.621,122.936
	c0.76,0,1.485,0.436,1.82,1.169c6.185,13.535,24.423,49.908,34.419,55.593c4.82,2.74,11.461,2.607,18.221-0.363
	c7.442-3.272,13.307-9.238,14.592-14.845c1.857-8.106-0.799-13.064-6.09-22.943c-1.934-3.609-4.124-7.7-6.519-12.754
	c-1.944-4.105-4.238-8.086-6.649-11.871c-2.95-0.123-10.678-1.172-17.568-8.351c-1.394-1.45-2.767-2.982-4.095-4.464
	c-6.323-7.052-12.299-13.73-20.987-13.093c-5.77,0.412-7.35,1.928-7.762,2.561c-0.319,0.489-0.25,0.932-0.249,0.935
	c0.105,0.316,2.122,6.599,0.007,12.668c-1.525,4.377-5.959,8.418-8.409,10.398c2.273,3.081,3.47,5.636,4.095,7.379l4.396-1.86
	C129.097,122.987,129.361,122.936,129.621,122.936z M64.633,105.625c-0.247,0.588-0.502,1.187-0.761,1.797
	c-5.384,12.688-12.084,28.48-0.124,41.229c11.343,12.092,27.138,8.691,41.073,5.692c4.527-0.975,8.723-1.877,12.481-2.192
	c3.536-2.061,4.076-6.766,4.447-13.451c0.342-6.146-0.513-10.267-0.575-10.556c-0.016-0.069-0.029-0.141-0.038-0.214
	c-0.012-0.088-0.549-3.53-4.542-8.682c-2.115,0.162-5.882,0.853-6.956,2.876c-0.638,1.199-0.958,2.243-1.328,3.452
	c-0.786,2.563-1.678,5.47-5.589,10.685c-5.972,7.963-16.155,10.743-16.586,10.857c-0.876,0.235-1.799-0.151-2.249-0.939
	c-0.45-0.787-0.315-1.778,0.329-2.416c2.678-2.647,9.771-10.74,10.42-16.309c0.715-6.131,0.108-11.177-1.803-14.999
	c-1.033-2.067-2.854-3.938-3.946-4.911c-2.878,0.403-4.886,0.899-4.941,0.914c-0.6,0.147-1.233,0.018-1.719-0.362
	c-0.486-0.379-0.771-0.961-0.771-1.577v-4.866c-1.238-0.075-3.493,0.002-7.205,0.772C69.434,103.425,65.956,104.976,64.633,105.625z
	 M93.989,107.067c0.866,1.025,1.746,2.249,2.422,3.6c2.265,4.53,3.005,10.335,2.197,17.251c-0.453,3.883-3.03,8.237-5.641,11.767
	c2.302-1.433,4.696-3.346,6.555-5.823c3.491-4.655,4.239-7.097,4.964-9.457c0.395-1.288,0.803-2.619,1.619-4.156
	c1.488-2.801,4.695-4.047,7.35-4.601c-1.783-1.839-3.977-3.814-6.672-5.871C103.61,107.353,98.548,106.875,93.989,107.067z
	 M95.597,103.046c4.819,0,10.011,0.799,13.614,3.55c3.638,2.777,6.447,5.438,8.614,7.875c2.118-1.71,5.958-5.167,7.158-8.61
	c1.661-4.766,0.004-10.002-0.013-10.055c-0.063-0.172-0.74-2.233,0.68-4.414c1.629-2.501,5.272-3.971,10.829-4.368
	c10.625-0.767,17.563,6.953,24.251,14.413c1.306,1.456,2.656,2.962,4.001,4.364c4.17,4.343,8.675,6.051,11.776,6.717
	c-2.658-3.896-5.347-7.533-7.776-10.819c-5.032-6.806-8.667-11.723-9.323-15.135c-0.69-3.589,1.024-6.375,3.183-8.378H67.154
	c-0.772,0-1.536-0.037-2.289-0.11c2.256,3.825,4.575,9.887,3.226,17.461c-0.268,1.503-0.754,3.13-1.385,4.882
	c1.807-0.658,4.086-1.36,6.731-1.909c7.498-1.556,10.227-0.648,10.883-0.333c0.693,0.332,1.135,1.033,1.135,1.803v4.067
	C87.814,103.603,91.576,103.046,95.597,103.046z M188.622,74.186h5c5.809,0,12.588,4.028,15.613,6.041
	c2.358-3.086,7.637-10.854,7.637-18.541c0-8.134-5.104-11.867-6.529-12.75h-9.971c-1.104,0-2-0.896-2-2v-6.75h-9.75V74.186z
	 M169.668,74.186h14.954v-39.5h-23.5v17c0,1.104-0.896,2-2,2s-2-0.896-2-2v-17h-6.75v17c0,1.104-0.896,2-2,2s-2-0.896-2-2v-17h-6.75
	v17c0,1.104-0.896,2-2,2s-2-0.896-2-2v-17h-6.75v17c0,1.104-0.896,2-2,2s-2-0.896-2-2v-17h-6.75v17c0,1.104-0.896,2-2,2
	s-2-0.896-2-2v-17h-19.25v39.5h74.703C169.606,74.186,169.637,74.186,169.668,74.186z M60.822,73.132
	c1.986,0.683,4.117,1.054,6.332,1.054h23.718v-39.5H67.154c-10.771,0-19.532,8.762-19.532,19.532v0.436
	c0,8.492,5.447,15.735,13.031,18.42C60.71,73.09,60.767,73.111,60.822,73.132z M176.257,166.671c-4.618,0-8.375-3.757-8.375-8.375
	s3.757-8.375,8.375-8.375s8.375,3.757,8.375,8.375S180.875,166.671,176.257,166.671z M176.257,153.921
	c-2.412,0-4.375,1.963-4.375,4.375s1.963,4.375,4.375,4.375s4.375-1.963,4.375-4.375S178.669,153.921,176.257,153.921z
	 M158.247,135.936c-4.618,0-8.375-3.757-8.375-8.375s3.757-8.375,8.375-8.375s8.375,3.757,8.375,8.375
	S162.865,135.936,158.247,135.936z M158.247,123.186c-2.412,0-4.375,1.963-4.375,4.375s1.963,4.375,4.375,4.375
	s4.375-1.963,4.375-4.375S160.659,123.186,158.247,123.186z M200.622,70.936c-5.514,0-10-4.486-10-10s4.486-10,10-10s10,4.486,10,10
	S206.136,70.936,200.622,70.936z M200.622,54.936c-3.309,0-6,2.691-6,6s2.691,6,6,6s6-2.691,6-6S203.931,54.936,200.622,54.936z"/>
</svg>